<?xml version="1.0" encoding="UTF-8" standalone="no"?>
<!-- Created with Inkscape (http://www.inkscape.org/) -->

<svg
   xmlns:dc="http://purl.org/dc/elements/1.1/"
   xmlns:cc="http://creativecommons.org/ns#"
   xmlns:rdf="http://www.w3.org/1999/02/22-rdf-syntax-ns#"
   xmlns:svg="http://www.w3.org/2000/svg"
   xmlns="http://www.w3.org/2000/svg"
   xmlns:sodipodi="http://sodipodi.sourceforge.net/DTD/sodipodi-0.dtd"
   xmlns:inkscape="http://www.inkscape.org/namespaces/inkscape"
   width="1987.1793mm"
   height="1303.1mm"
   viewBox="0 0 1987.1793 1303.1"
   version="1.1"
   id="svg8"
   sodipodi:docname="Wasserkreislauf.svg"
   inkscape:version="0.92.5 (2060ec1f9f, 2020-04-08)">
  <defs
     id="defs2">
    <marker
       inkscape:isstock="true"
       style="overflow:visible"
       id="marker3451"
       refX="0"
       refY="0"
       orient="auto"
       inkscape:stockid="Arrow2Send">
      <path
         transform="matrix(-0.3,0,0,-0.3,0.69,0)"
         d="M 8.7185878,4.0337352 -2.2072895,0.01601326 8.7185884,-4.0017078 c -1.7454984,2.3720609 -1.7354408,5.6174519 -6e-7,8.035443 z"
         style="fill:#000000;fill-opacity:1;fill-rule:evenodd;stroke:#000000;stroke-width:0.625;stroke-linejoin:round;stroke-opacity:1"
         id="path3449"
         inkscape:connector-curvature="0" />
    </marker>
    <marker
       inkscape:isstock="true"
       style="overflow:visible"
       id="marker3441"
       refX="0"
       refY="0"
       orient="auto"
       inkscape:stockid="Arrow2Send">
      <path
         transform="matrix(-0.3,0,0,-0.3,0.69,0)"
         d="M 8.7185878,4.0337352 -2.2072895,0.01601326 8.7185884,-4.0017078 c -1.7454984,2.3720609 -1.7354408,5.6174519 -6e-7,8.035443 z"
         style="fill:#000000;fill-opacity:1;fill-rule:evenodd;stroke:#000000;stroke-width:0.625;stroke-linejoin:round;stroke-opacity:1"
         id="path3439"
         inkscape:connector-curvature="0" />
    </marker>
    <marker
       inkscape:stockid="Arrow2Send"
       orient="auto"
       refY="0"
       refX="0"
       id="Arrow2Send"
       style="overflow:visible"
       inkscape:isstock="true"
       inkscape:collect="always">
      <path
         id="path1712"
         style="fill:#000000;fill-opacity:1;fill-rule:evenodd;stroke:#000000;stroke-width:0.625;stroke-linejoin:round;stroke-opacity:1"
         d="M 8.7185878,4.0337352 -2.2072895,0.01601326 8.7185884,-4.0017078 c -1.7454984,2.3720609 -1.7354408,5.6174519 -6e-7,8.035443 z"
         transform="matrix(-0.3,0,0,-0.3,0.69,0)"
         inkscape:connector-curvature="0" />
    </marker>
    <marker
       inkscape:isstock="true"
       style="overflow:visible"
       id="marker2301"
       refX="0"
       refY="0"
       orient="auto"
       inkscape:stockid="Arrow1Send">
      <path
         transform="matrix(-0.2,0,0,-0.2,-1.2,0)"
         style="fill:#000000;fill-opacity:1;fill-rule:evenodd;stroke:#000000;stroke-width:1.00000003pt;stroke-opacity:1"
         d="M 0,0 5,-5 -12.5,0 5,5 Z"
         id="path2299"
         inkscape:connector-curvature="0" />
    </marker>
    <marker
       inkscape:isstock="true"
       style="overflow:visible"
       id="marker2291"
       refX="0"
       refY="0"
       orient="auto"
       inkscape:stockid="Arrow1Send">
      <path
         transform="matrix(-0.2,0,0,-0.2,-1.2,0)"
         style="fill:#000000;fill-opacity:1;fill-rule:evenodd;stroke:#000000;stroke-width:1.00000003pt;stroke-opacity:1"
         d="M 0,0 5,-5 -12.5,0 5,5 Z"
         id="path2289"
         inkscape:connector-curvature="0" />
    </marker>
    <marker
       inkscape:isstock="true"
       style="overflow:visible"
       id="marker2183"
       refX="0"
       refY="0"
       orient="auto"
       inkscape:stockid="Arrow1Mend">
      <path
         transform="matrix(-0.4,0,0,-0.4,-4,0)"
         style="fill:#000000;fill-opacity:1;fill-rule:evenodd;stroke:#000000;stroke-width:1.00000003pt;stroke-opacity:1"
         d="M 0,0 5,-5 -12.5,0 5,5 Z"
         id="path2181"
         inkscape:connector-curvature="0" />
    </marker>
    <marker
       inkscape:isstock="true"
       style="overflow:visible"
       id="marker2143"
       refX="0"
       refY="0"
       orient="auto"
       inkscape:stockid="Arrow1Mend">
      <path
         transform="matrix(-0.4,0,0,-0.4,-4,0)"
         style="fill:#000000;fill-opacity:1;fill-rule:evenodd;stroke:#000000;stroke-width:1.00000003pt;stroke-opacity:1"
         d="M 0,0 5,-5 -12.5,0 5,5 Z"
         id="path2141"
         inkscape:connector-curvature="0" />
    </marker>
    <marker
       inkscape:stockid="Arrow2Lend"
       orient="auto"
       refY="0"
       refX="0"
       id="marker2059"
       style="overflow:visible"
       inkscape:isstock="true">
      <path
         id="path2057"
         style="fill:#000000;fill-opacity:1;fill-rule:evenodd;stroke:#000000;stroke-width:0.625;stroke-linejoin:round;stroke-opacity:1"
         d="M 8.7185878,4.0337352 -2.2072895,0.01601326 8.7185884,-4.0017078 c -1.7454984,2.3720609 -1.7354408,5.6174519 -6e-7,8.035443 z"
         transform="matrix(-1.1,0,0,-1.1,-1.1,0)"
         inkscape:connector-curvature="0" />
    </marker>
    <marker
       inkscape:stockid="Arrow2Lend"
       orient="auto"
       refY="0"
       refX="0"
       id="marker2025"
       style="overflow:visible"
       inkscape:isstock="true">
      <path
         id="path2023"
         style="fill:#000000;fill-opacity:1;fill-rule:evenodd;stroke:#000000;stroke-width:0.625;stroke-linejoin:round;stroke-opacity:1"
         d="M 8.7185878,4.0337352 -2.2072895,0.01601326 8.7185884,-4.0017078 c -1.7454984,2.3720609 -1.7354408,5.6174519 -6e-7,8.035443 z"
         transform="matrix(-1.1,0,0,-1.1,-1.1,0)"
         inkscape:connector-curvature="0" />
    </marker>
    <marker
       inkscape:isstock="true"
       style="overflow:visible"
       id="marker1985"
       refX="0"
       refY="0"
       orient="auto"
       inkscape:stockid="Arrow2Lend">
      <path
         transform="matrix(-1.1,0,0,-1.1,-1.1,0)"
         d="M 8.7185878,4.0337352 -2.2072895,0.01601326 8.7185884,-4.0017078 c -1.7454984,2.3720609 -1.7354408,5.6174519 -6e-7,8.035443 z"
         style="fill:#000000;fill-opacity:1;fill-rule:evenodd;stroke:#000000;stroke-width:0.625;stroke-linejoin:round;stroke-opacity:1"
         id="path1983"
         inkscape:connector-curvature="0" />
    </marker>
    <marker
       inkscape:isstock="true"
       style="overflow:visible"
       id="marker3441-3"
       refX="0"
       refY="0"
       orient="auto"
       inkscape:stockid="Arrow2Send">
      <path
         inkscape:connector-curvature="0"
         transform="matrix(-0.3,0,0,-0.3,0.69,0)"
         d="M 8.7185878,4.0337352 -2.2072895,0.01601326 8.7185884,-4.0017078 c -1.7454984,2.3720609 -1.7354408,5.6174519 -6e-7,8.035443 z"
         style="fill:#000000;fill-opacity:1;fill-rule:evenodd;stroke:#000000;stroke-width:0.625;stroke-linejoin:round;stroke-opacity:1"
         id="path3439-6" />
    </marker>
    <marker
       inkscape:isstock="true"
       style="overflow:visible"
       id="marker3441-3-0"
       refX="0"
       refY="0"
       orient="auto"
       inkscape:stockid="Arrow2Send">
      <path
         inkscape:connector-curvature="0"
         transform="matrix(-0.3,0,0,-0.3,0.69,0)"
         d="M 8.7185878,4.0337352 -2.2072895,0.01601326 8.7185884,-4.0017078 c -1.7454984,2.3720609 -1.7354408,5.6174519 -6e-7,8.035443 z"
         style="fill:#4d4d4d;fill-opacity:1;fill-rule:evenodd;stroke:#4d4d4d;stroke-width:0.625;stroke-linejoin:round;stroke-opacity:1"
         id="path3439-6-3" />
    </marker>
    <marker
       inkscape:isstock="true"
       style="overflow:visible"
       id="marker3441-3-0-8"
       refX="0"
       refY="0"
       orient="auto"
       inkscape:stockid="Arrow2Send">
      <path
         inkscape:connector-curvature="0"
         transform="matrix(-0.3,0,0,-0.3,0.69,0)"
         d="M 8.7185878,4.0337352 -2.2072895,0.01601326 8.7185884,-4.0017078 c -1.7454984,2.3720609 -1.7354408,5.6174519 -6e-7,8.035443 z"
         style="fill:#000000;fill-opacity:1;fill-rule:evenodd;stroke:#000000;stroke-width:0.625;stroke-linejoin:round;stroke-opacity:1"
         id="path3439-6-3-5" />
    </marker>
    <marker
       inkscape:isstock="true"
       style="overflow:visible"
       id="marker3441-3-0-8-9"
       refX="0"
       refY="0"
       orient="auto"
       inkscape:stockid="Arrow2Send">
      <path
         inkscape:connector-curvature="0"
         transform="matrix(-0.3,0,0,-0.3,0.69,0)"
         d="M 8.7185878,4.0337352 -2.2072895,0.01601326 8.7185884,-4.0017078 c -1.7454984,2.3720609 -1.7354408,5.6174519 -6e-7,8.035443 z"
         style="fill:#000000;fill-opacity:1;fill-rule:evenodd;stroke:#000000;stroke-width:0.625;stroke-linejoin:round;stroke-opacity:1"
         id="path3439-6-3-5-9" />
    </marker>
    <marker
       inkscape:isstock="true"
       style="overflow:visible"
       id="marker3441-3-0-8-0"
       refX="0"
       refY="0"
       orient="auto"
       inkscape:stockid="Arrow2Send">
      <path
         inkscape:connector-curvature="0"
         transform="matrix(-0.3,0,0,-0.3,0.69,0)"
         d="M 8.7185878,4.0337352 -2.2072895,0.01601326 8.7185884,-4.0017078 c -1.7454984,2.3720609 -1.7354408,5.6174519 -6e-7,8.035443 z"
         style="fill:#000000;fill-opacity:1;fill-rule:evenodd;stroke:#000000;stroke-width:0.625;stroke-linejoin:round;stroke-opacity:1"
         id="path3439-6-3-5-2" />
    </marker>
    <marker
       inkscape:isstock="true"
       style="overflow:visible"
       id="marker3441-3-0-8-9-9"
       refX="0"
       refY="0"
       orient="auto"
       inkscape:stockid="Arrow2Send">
      <path
         inkscape:connector-curvature="0"
         transform="matrix(-0.3,0,0,-0.3,0.69,0)"
         d="M 8.7185878,4.0337352 -2.2072895,0.01601326 8.7185884,-4.0017078 c -1.7454984,2.3720609 -1.7354408,5.6174519 -6e-7,8.035443 z"
         style="fill:#000000;fill-opacity:1;fill-rule:evenodd;stroke:#000000;stroke-width:0.625;stroke-linejoin:round;stroke-opacity:1"
         id="path3439-6-3-5-9-0" />
    </marker>
    <marker
       inkscape:isstock="true"
       style="overflow:visible"
       id="marker3441-3-0-8-9-2"
       refX="0"
       refY="0"
       orient="auto"
       inkscape:stockid="Arrow2Send">
      <path
         inkscape:connector-curvature="0"
         transform="matrix(-0.3,0,0,-0.3,0.69,0)"
         d="M 8.7185878,4.0337352 -2.2072895,0.01601326 8.7185884,-4.0017078 c -1.7454984,2.3720609 -1.7354408,5.6174519 -6e-7,8.035443 z"
         style="fill:#000000;fill-opacity:1;fill-rule:evenodd;stroke:#000000;stroke-width:0.625;stroke-linejoin:round;stroke-opacity:1"
         id="path3439-6-3-5-9-00" />
    </marker>
  </defs>
  <sodipodi:namedview
     id="base"
     pagecolor="#ffffff"
     bordercolor="#666666"
     borderopacity="1.0"
     inkscape:pageopacity="0.0"
     inkscape:pageshadow="2"
     inkscape:zoom="0.12374369"
     inkscape:cx="3754.4498"
     inkscape:cy="1982.3926"
     inkscape:document-units="mm"
     inkscape:current-layer="layer1"
     showgrid="false"
     inkscape:snap-object-midpoints="false"
     inkscape:window-width="2560"
     inkscape:window-height="1376"
     inkscape:window-x="0"
     inkscape:window-y="288"
     inkscape:window-maximized="1" />
  <metadata
     id="metadata5">
    <rdf:RDF>
      <cc:Work
         rdf:about="">
        <dc:format>image/svg+xml</dc:format>
        <dc:type
           rdf:resource="http://purl.org/dc/dcmitype/StillImage" />
      </cc:Work>
    </rdf:RDF>
  </metadata>
  <g
     inkscape:label="Layer 1"
     inkscape:groupmode="layer"
     id="layer1"
     transform="translate(210.60714,431.42794)">
    <path
       style="stroke-width:0.49048313;fill:#4d4d4d"
       d="m 133.56364,-431.42794 c -25.51675,3e-5 -46.168945,16.65886 -46.168945,37.24116 0,2.3608 0.288745,4.68805 0.783413,6.91584 -15.788138,4.18963 -27.165782,16.19316 -27.165782,30.32477 0,17.62297 17.72547,31.92105 39.573294,31.92105 h 131.91159 c 21.84781,0 39.57381,-14.29808 39.57381,-31.92105 0,-17.62297 -17.726,-31.92052 -39.57381,-31.92052 h -0.65939 c 0.41223,-1.72905 0.65939,-3.49129 0.65939,-5.32009 0,-14.69689 -14.75758,-26.60097 -32.97783,-26.60097 -10.01703,0 -19.0034,3.62464 -25.06307,9.31053 -7.70858,-11.87055 -23.12578,-19.95072 -40.89267,-19.95072 z m -42.845635,117.02958 c -3.856861,-0.0156 -7.528198,1.79236 -9.135875,4.83483 l -19.78639,37.24114 c -2.143554,4.05662 0.20623,8.74474 5.23534,10.47378 5.029127,1.72904 10.841166,-0.1328 12.984738,-4.1894 l 19.786904,-37.24116 c 2.143568,-4.05659 -0.164888,-8.74472 -5.193998,-10.47377 h -0.04134 c -1.257282,-0.43225 -2.563757,-0.64024 -3.849379,-0.64542 z m 49.508315,0 c -3.85689,-0.0156 -7.52824,1.79236 -9.13593,4.83483 l -19.7865,37.24114 c -2.14356,4.05662 0.16489,8.74474 5.19403,10.47378 5.02915,1.72904 10.84123,-0.1328 12.98481,-4.1894 l 19.787,-37.24116 c 2.14356,-4.05659 -0.16489,-8.74472 -5.19401,-10.47377 -1.25729,-0.43225 -2.56377,-0.64024 -3.8494,-0.64542 z m 46.16931,0 c -3.85686,-0.0156 -7.52821,1.79236 -9.13587,4.83483 l -19.78691,37.24114 c -2.14357,4.05662 0.16488,8.74474 5.194,10.47378 5.02911,1.72904 10.8417,-0.1328 12.98525,-4.1894 l 19.78639,-37.24116 c 2.14355,-4.05659 -0.16487,-8.74472 -5.194,-10.47377 -1.25728,-0.43225 -2.56324,-0.64024 -3.84886,-0.64542 z m 49.46675,0 c -3.85686,-0.0156 -7.52821,1.79236 -9.13588,4.83483 l -19.7869,37.24114 c -2.14357,4.05662 0.16487,8.74474 5.194,10.47378 5.02913,1.72904 10.8417,-0.1328 12.98525,-4.1894 l 19.78639,-37.24116 c 2.14357,-4.05659 -0.16488,-8.74472 -5.194,-10.47377 -1.25728,-0.43225 -2.56324,-0.64024 -3.84886,-0.64542 z m -169.490692,86.43812 c -2.857931,-0.0303 -5.663123,1.38812 -7.283793,3.99097 -2.469598,3.96626 -1.253241,9.18607 2.713013,11.65562 5.650087,3.51727 11.486926,5.27608 15.565457,6.2115 2.525749,8.3255 6.679004,16.33268 12.852963,22.50664 5.968125,5.96812 13.190052,9.48517 18.578262,11.50576 1.59024,0.61736 3.06797,1.08552 4.35894,1.47846 0.39287,1.29089 0.89796,2.76864 1.47795,4.35891 2.02053,5.38812 5.53819,12.60955 11.50634,18.57768 1.27392,1.2739 2.62681,2.46052 4.04371,3.56567 0.6749,1.21095 1.65638,2.27334 2.91611,3.05769 5.65012,3.51727 11.48698,5.27556 15.56551,6.21099 0.89798,4.07849 2.69424,9.91589 6.21151,15.56598 0.79633,1.27894 1.87951,2.26989 3.1135,2.94555 1.09461,1.39917 2.26851,2.73619 3.52795,3.99563 5.96812,5.96812 13.19001,9.48516 18.5782,11.50575 1.59022,0.61736 3.06794,1.085009 4.3589,1.47795 0.39287,1.290889 0.89796,2.769153 1.47795,4.359423 2.02052,5.388121 5.53815,12.609557 11.50627,18.577679 6.17389,6.173899 14.1811,10.327378 22.52524,12.834358 0.89798,4.078488 2.69424,9.915369 6.21151,15.565458 2.46962,3.966319 7.68936,5.182603 11.65562,2.713011 3.96633,-2.469528 5.18205,-7.689368 2.71249,-11.655618 -2.60055,-4.172111 -4.28392,-9.260617 -4.75164,-14.181047 -0.29936,-3.85404 -3.19946,-7.016104 -7.01611,-7.652245 -6.97839,-1.253461 -14.33099,-4.564657 -19.36368,-9.597347 -5.14498,-5.144979 -8.30685,-12.273442 -9.61647,-19.382792 -0.59869,-3.55471 -3.36742,-6.32343 -6.92205,-6.92206 -7.10942,-1.30967 -14.23737,-4.47157 -19.38228,-9.61647 -3.96916,-3.96917 -6.85095,-9.3702 -8.52713,-14.89883 -0.21068,-1.06491 -0.37103,-2.13244 -0.47181,-3.19257 -0.17607,-2.26681 -1.25238,-4.29337 -2.88509,-5.70818 -1.39446,-1.4413 -3.28857,-2.38725 -5.38469,-2.56108 -1.11451,-0.10595 -2.2372,-0.27764 -3.35638,-0.50488 -5.47705,-1.67036 -10.8232,-4.54503 -14.75364,-8.47545 -5.14501,-5.14498 -8.30691,-12.27293 -9.61652,-19.38228 -0.59871,-3.55471 -3.36745,-6.32395 -6.9221,-6.92258 -7.10946,-1.30967 -14.23745,-4.47105 -19.38239,-9.61595 -5.032717,-5.0327 -8.325584,-12.36666 -9.616505,-19.34507 -0.654777,-3.79787 -3.816905,-6.69804 -7.652244,-7.01611 -4.92043,-0.46772 -10.008936,-2.1516 -14.181048,-4.75216 -1.3634,-0.84891 -2.874813,-1.26208 -4.371825,-1.27796 z m -62.1150792,9.70328 c -3.43339222,0 -7.357174,0.49041 -10.7905479,3.92379 L -132.29396,-104.7104 c -3.43337,3.43339 -4.90461,7.357548 -4.90461,11.771888 1e-5,8.87775 6.86699,15.744259 15.69569,15.744259 h 15.74426 v 34.137449 c -0.0491,0.441428 -0.0491,0.932135 -0.0491,1.37356 v 54.934115 c 0,10.839674 8.779772,19.619475 19.619399,19.619475 h 7.847538 c 0.588574,0 1.177191,-0.04906 1.765768,-0.09819 0.735707,0.04894 1.471371,0.09819 2.207088,0.09819 h 15.64651 11.771341 c 10.839675,0 19.619473,-8.779801 19.619473,-19.619475 V 1.4794962 -29.911868 c 0,-8.681545 7.013626,-15.695168 15.695168,-15.695168 h 31.391353 c 8.681562,0 15.695165,7.013623 15.695165,15.695168 V 1.4794962 13.250871 c 0,10.839674 8.779805,19.619475 19.619486,19.619475 h 11.771375 15.94063 c 0.686681,0 1.373674,3.7e-5 2.060339,-0.04909 0.539547,0.04913 1.078976,0.04909 1.618504,0.04909 h 7.847584 c 10.839699,0 19.619549,-8.779801 19.619549,-19.619475 V 5.354195 c 0.14717,-1.3242959 0.24547,-2.6485881 0.24547,-3.972884 l -0.34365,-78.575564 h 15.69577 c 8.33825,0 15.69525,-6.91556 15.69525,-15.744259 0.49051,-4.41434 -1.47118,-8.338498 -5.39505,-11.771888 L 14.556752,-214.82358 c -2.942899,-2.45242 -6.8667684,-3.43338 -10.3001432,-3.43338 z"
       id="path815"
       inkscape:connector-curvature="0"
       sodipodi:nodetypes="cscssssscssccccccccccccccscccccccscccccccscccccsccscccccccccscccsccccccsccccccccscccccccscccsccsssscscsscsssscsscscssscccscccs" />
    <path
       id="path826"
       d="m -94.79348,62.201189 c -2.815595,0 -5.080763,2.265184 -5.080763,5.080789 0,2.815605 2.265168,5.080788 5.080763,5.080788 h 1.693578 v 31.522064 c -0.402217,0.29637 -0.804444,0.61393 -1.185501,0.93147 -3.281322,2.79444 -5.58884,6.68971 -5.58884,11.57997 0,9.9287 3.027285,17.80393 7.832835,23.8162 3.006115,3.74707 6.583814,6.62619 10.267373,8.84903 l -4.212806,12.6173 c -0.698597,2.07465 -0.338707,4.33984 0.931474,6.09694 1.270194,1.75711 3.323672,2.81561 5.50416,2.81561 h 54.194932 c 2.180506,0 4.212822,-1.03733 5.50419,-2.81561 1.291369,-1.77827 1.630085,-4.04346 0.931481,-6.09694 l -4.191659,-12.59612 c 3.68358,-2.22285 7.261295,-5.10196 10.267434,-8.84904 4.8055768,-6.01227 7.832877,-13.86632 7.832877,-23.8162 0,-4.89026 -2.3075258,-8.78553 -5.588865,-11.55879 -0.381059,-0.31755 -0.783289,-0.6351 -1.18552,-0.93149 V 72.362766 h 1.693599 c 2.8156032,0 5.080786,-2.265183 5.080786,-5.080788 0,-2.815605 -2.2651828,-5.080789 -5.080786,-5.080789 z m 76.211592,54.258591 c 0,0.2117 -0.06353,0.55041 -0.804461,1.18551 -1.016157,0.86798 -2.963796,1.9053 -6.202794,2.83678 -6.435663,1.84179 -15.835123,2.68858 -26.864673,2.68858 -11.029494,0 -20.42889,-0.84679 -26.864524,-2.70975 -3.238979,-0.93148 -5.1866,-1.96881 -6.202754,-2.83677 -0.740944,-0.6351 -0.804454,-0.97383 -0.804454,-1.18552 v -0.0635 -0.0212 c 0,-0.21169 0,-0.52925 0.804454,-1.22785 1.016154,-0.86797 2.963775,-1.90529 6.202754,-2.83677 6.435634,-1.82062 15.83503,-2.66742 26.864524,-2.66742 11.02955,0 20.42901,0.8468 26.864673,2.70976 3.238998,0.93147 5.186637,1.9688 6.202794,2.83676 0.804461,0.67745 0.804461,1.01616 0.804461,1.22787 v 0.0212 0.0635 z m -11.812838,27.03403 -0.0423,0.10585 v -0.10585 z M -76.164038,75.749956 h 6.774354 c 1.862948,0 3.387169,1.524237 3.387169,3.387198 0,1.862953 -1.524221,3.38719 -3.387169,3.38719 h -6.774354 c -1.862938,0 -3.387169,-1.524237 -3.387169,-3.38719 0,-1.862961 1.524231,-3.387198 3.387169,-3.387198 z"
       inkscape:connector-curvature="0"
       style="stroke-width:0.21169952;fill:#4d4d4d" />
    <path
       id="path837"
       d="m 23.889555,78.565563 c 0,-1.545407 1.249034,-2.815605 2.815605,-2.815605 0.740947,0 1.460731,0.296382 1.989981,0.825633 l 3.154322,3.154321 c -0.762119,1.905296 -1.18552,4.001125 -1.18552,6.181624 0,4.212822 1.524236,8.044584 4.064631,11.00838 -1.122007,1.947631 -0.846796,4.466864 0.80446,6.139284 1.989973,1.98998 5.20781,1.98998 7.176612,0 L 64.74758,81.042452 c 1.989972,-1.989981 1.989972,-5.207808 0,-7.176618 -1.672428,-1.672428 -4.191651,-1.926467 -6.139289,-0.804453 -2.963797,-2.561565 -6.795554,-4.085802 -11.008379,-4.085802 -2.180507,0 -4.276338,0.423394 -6.181634,1.164349 l -3.154324,-3.15433 C 35.19431,63.915962 31.02383,62.201191 26.70516,62.201191 c -9.039573,0 -16.364374,7.324801 -16.364374,16.364372 v 37.830707 c -3.7470828,0 -6.774383,3.02731 -6.774383,6.77438 0,3.74709 3.0273002,6.77439 6.774383,6.77439 h 94.841424 c 3.7471,0 6.77442,-3.0273 6.77442,-6.77439 0,-3.74707 -3.02732,-6.77438 -6.77442,-6.77438 H 23.889555 Z M 10.340786,136.71942 v 3.3872 c 0,6.01226 2.625072,11.43177 6.774388,15.15768 v 8.55266 c 0,3.74708 3.027302,6.77439 6.774381,6.77439 3.747086,0 6.774388,-3.02731 6.774388,-6.77439 v -3.38719 h 54.195086 v 3.38719 c 0,3.74708 3.027302,6.77439 6.774388,6.77439 3.747077,0 6.774379,-3.02731 6.774379,-6.77439 v -8.55266 c 4.149324,-3.72591 6.774414,-9.12425 6.774414,-15.15768 v -3.3872 z"
       inkscape:connector-curvature="0"
       style="stroke-width:0.21169952;fill:#4d4d4d" />
    <path
       id="path848"
       d="m -673.91774,301.58833 c 2.9368,-2.09021 6.8527,-2.09021 9.7896,0 5.9531,4.10104 13.2291,6.90562 20.5052,6.90562 7.1173,0 14.6579,-2.8575 20.4787,-6.90562 v 0 c 3.1486,-2.24896 7.4348,-2.06375 10.3717,0.44979 3.81,3.14854 8.5989,5.55625 13.3879,6.6675 4.5508,1.05833 7.3819,5.60917 6.3235,10.16 -1.0583,4.55083 -5.6091,7.38188 -10.16,6.32354 -6.4823,-1.50812 -11.8798,-4.36562 -15.3987,-6.61458 -7.6729,4.1275 -16.2719,6.85271 -25.0031,6.85271 -8.4402,0 -16.0338,-2.61938 -21.2725,-5.00063 -1.5346,-0.71437 -2.9369,-1.40229 -4.1275,-2.03729 -1.1907,0.635 -2.5665,1.34938 -4.1275,2.03729 -5.2388,2.38125 -12.8323,5.00063 -21.2725,5.00063 -8.7313,0 -17.3302,-2.72521 -25.0032,-6.82625 -3.5454,2.2225 -8.9164,5.10646 -15.3987,6.61458 -4.5508,1.05833 -9.1017,-1.77271 -10.16,-6.32354 -1.0583,-4.55083 1.7727,-9.10167 6.3235,-10.16 4.7625,-1.13771 9.5779,-3.54542 13.3615,-6.69396 2.9369,-2.51354 7.2231,-2.67229 10.3717,-0.44979 v 0 c 5.8737,4.04812 13.3879,6.90562 20.5052,6.90562 7.276,0 14.552,-2.80458 20.5052,-6.90562 z m 9.7896,76.2 c 5.9531,4.10104 13.2291,6.90563 20.5052,6.90563 7.1173,0 14.6579,-2.8575 20.4787,-6.90563 v 0 c 3.1486,-2.24896 7.4348,-2.06375 10.3717,0.44979 3.81,3.14854 8.5989,5.55626 13.3879,6.66751 4.5508,1.05833 7.3819,5.60916 6.3235,10.16 -1.0583,4.55083 -5.6091,7.38187 -10.16,6.32354 -6.4823,-1.50813 -11.8798,-4.36563 -15.3987,-6.61459 -7.6729,4.1275 -16.2719,6.85271 -25.0031,6.85271 -8.4402,0 -16.0338,-2.61937 -21.2725,-5.00062 -1.5346,-0.71438 -2.9369,-1.40229 -4.1275,-2.03729 -1.1907,0.635 -2.5665,1.34937 -4.1275,2.03729 -5.2388,2.38125 -12.8323,5.00062 -21.2725,5.00062 -8.7313,0 -17.3302,-2.72521 -25.0032,-6.82625 -3.5454,2.2225 -8.9164,5.10646 -15.3987,6.61459 -4.5508,1.05833 -9.1017,-1.77271 -10.16,-6.32355 -1.0583,-4.55083 1.7727,-9.10166 6.3235,-10.16 4.789,-1.11125 9.5779,-3.51896 13.3879,-6.6675 2.9369,-2.48708 7.2232,-2.67229 10.3717,-0.44979 v 0 c 5.8473,4.02167 13.3615,6.87917 20.4788,6.87917 7.276,0 14.552,-2.80459 20.5052,-6.90563 2.9368,-2.09021 6.8527,-2.09021 9.7896,0 z m 0,-38.1 c 5.9531,4.10104 13.2291,6.90563 20.5052,6.90563 7.1173,0 14.6579,-2.8575 20.4787,-6.90563 v 0 c 3.1486,-2.24896 7.4348,-2.06375 10.3717,0.44979 3.81,3.14854 8.5989,5.55625 13.3879,6.6675 4.5508,1.05834 7.3819,5.60917 6.3235,10.16 -1.0583,4.55084 -5.6091,7.38188 -10.16,6.32354 -6.4823,-1.50812 -11.8798,-4.36562 -15.3987,-6.61458 -7.6729,4.1275 -16.2719,6.85271 -25.0031,6.85271 -8.4402,0 -16.0338,-2.61938 -21.2725,-5.00063 -1.5346,-0.71437 -2.9369,-1.40229 -4.1275,-2.03729 -1.1907,0.635 -2.5665,1.34938 -4.1275,2.03729 -5.2388,2.38125 -12.8323,5.00063 -21.2725,5.00063 -8.7313,0 -17.3302,-2.72521 -25.0032,-6.82625 -3.5454,2.2225 -8.9164,5.10646 -15.3987,6.61458 -4.5508,1.05834 -9.1017,-1.77271 -10.16,-6.32354 -1.0583,-4.55083 1.7727,-9.10167 6.3235,-10.16 4.789,-1.11125 9.5779,-3.51896 13.3879,-6.6675 2.9369,-2.51354 7.2232,-2.67229 10.3717,-0.44979 v 0 c 5.8473,4.02167 13.3615,6.87917 20.4788,6.87917 7.276,0 14.552,-2.80459 20.5052,-6.90563 2.9368,-2.09021 6.8527,-2.09021 9.7896,0 z"
       inkscape:connector-curvature="0"
       style="stroke-width:0.26458332" />
    <path
       id="path870"
       d="m -596.968,-405.6842 -39.3171,43.25938 c -1.0319,1.11125 -1.5875,2.59292 -1.5875,4.10104 0,3.38667 2.7252,6.11188 6.1119,6.11188 h 6.5881 l -19.4204,19.42041 c -1.1113,1.11125 -1.7463,2.64584 -1.7463,4.23334 0,3.30729 2.6723,5.97958 5.9796,5.97958 h 8.8371 l -19.7379,23.6802 c -0.9261,1.11125 -1.4288,2.51355 -1.4288,3.96875 0,3.43959 2.7781,6.21771 6.2177,6.21771 h 44.5823 v 8.46667 c 0,4.68312 3.7836,8.46667 8.4667,8.46667 4.6831,0 8.4667,-3.78355 8.4667,-8.46667 v -8.46667 h 44.5822 c 3.4396,0 6.2178,-2.77812 6.2178,-6.21771 0,-1.4552 -0.5028,-2.8575 -1.4288,-3.96875 l -19.7379,-23.6802 h 8.8371 c 3.3073,0 5.9796,-2.67229 5.9796,-5.97958 0,-1.5875 -0.635,-3.12209 -1.7463,-4.23334 l -19.4204,-19.42041 h 6.5881 c 3.3602,0 6.1119,-2.72521 6.1119,-6.11188 0,-1.50812 -0.5556,-2.98979 -1.5875,-4.10104 l -39.3171,-43.25938 c -0.8996,-1.00541 -2.196,-1.56104 -3.5454,-1.56104 -1.3494,0 -2.6458,0.55563 -3.5454,1.56104 z"
       inkscape:connector-curvature="0"
       style="stroke-width:0.26458332" />
    <path
       style="stroke-width:0.37595129;fill:#4d4d4d"
       d="m 622.80004,280.09517 c -20.30137,0 -36.09133,16.16588 -36.09133,36.09134 0,2.2557 -2.9e-4,4.13538 0.37568,6.01511 -7.51906,5.26333 -12.40597,14.28634 -12.40597,24.06108 0,16.9178 13.15797,30.07619 30.07569,30.07619 h 6.01565 v 60.15188 c 0,1.72432 0.34356,3.34992 0.9648,4.81677 -2.30828,0.10504 -4.74938,-0.0997 -7.19489,0.42839 -1.98901,-0.0666 -3.99029,-0.17053 -5.95985,-0.17053 -7.27609,-5e-5 -14.55211,1.42886 -20.50521,-2.67218 -2.9369,-2.09021 -6.85278,-2.09019 -9.78958,0 -1.61809,1.11466 -3.33468,1.81832 -5.12164,2.25568 v -25.95552 -4.16719 -16.66875 c 0,-4.02394 3.26863,-7.29258 7.29257,-7.29258 4.02392,0 7.29258,3.26864 7.29258,7.29258 v 1.69291 c -3.81558,1.30225 -6.25078,4.49315 -6.25078,9.12916 0,3.63325 3.29464,9.74068 8.5948,14.53298 0.49485,0.45577 1.15906,0.68987 1.82317,0.68987 0.66416,0 1.32829,-0.2341 1.82314,-0.68987 5.3001,-4.7923 8.59483,-10.89973 8.59483,-14.53298 0,-4.63601 -2.4352,-7.83995 -6.25078,-9.12916 v -1.69291 c 0,-8.63388 -6.99307,-15.62695 -15.62696,-15.62695 -8.63393,0 -15.62695,6.99307 -15.62695,15.62695 v 2.83908 c -2.17474,-1.14596 -4.66206,-1.79728 -7.29258,-1.79728 -8.63388,0 -15.62695,6.99304 -15.62695,15.62695 v 1.69291 c -3.81558,1.30225 -6.25078,4.49315 -6.25078,9.12916 0,3.63325 3.2947,9.74068 8.5948,14.53298 0.49491,0.45577 1.15898,0.68987 1.82317,0.68987 0.66415,0 1.32828,-0.2341 1.82313,-0.68987 5.30011,-4.7923 8.59484,-10.89973 8.59484,-14.53298 0,-4.63601 -2.43523,-7.83993 -6.25079,-9.12916 v -1.69291 c 0,-4.02394 3.26861,-7.29258 7.29258,-7.29258 4.02394,0 7.29258,3.26864 7.29258,7.29258 v 4.16719 26.04492 c 0,0.18343 0.0159,0.3629 0.0387,0.54001 -2.33212,-0.0623 -4.70961,-0.21291 -7.08793,-0.21291 -7.11732,0 -14.63156,1.37584 -20.47885,-2.64583 -3.14852,-2.2225 -7.43456,-2.03695 -10.37146,0.45011 -3.81,3.14859 -8.59933,1.3227 -13.38834,2.43395 -4.5508,1.05836 -7.38142,5.60928 -6.32312,10.16011 1.05828,4.55083 5.60877,7.38201 10.15958,6.32365 6.48229,-1.50808 11.85365,-0.68795 15.39907,-2.91042 7.67299,4.10102 16.27182,3.12171 25.00312,3.12177 8.44018,-6e-5 16.03381,1.08463 21.27261,-1.29657 1.56099,-0.68797 2.93669,-1.40205 4.12739,-2.03708 1.1906,0.63498 2.59279,1.32271 4.1274,2.03708 5.23869,2.38128 12.83239,1.29662 21.2726,1.29657 8.18904,0 16.2615,0.86119 23.56289,-2.43705 0.50848,-0.19529 0.98933,-0.42895 1.44024,-0.7116 0.52138,0.33321 1.08489,0.59732 1.68619,0.81235 7.23675,3.14886 15.21952,2.30989 23.31693,2.30994 8.44018,-5e-5 16.0338,1.08464 21.27261,-1.29656 1.56099,-0.68797 2.93669,-1.40205 4.12739,-2.03708 1.1906,0.63497 2.59281,1.3227 4.12739,2.03708 5.2387,2.38128 12.8324,1.29662 21.27261,1.29656 8.7313,0 17.33021,0.97883 25.00313,-3.14864 3.5189,2.24893 8.91624,1.40223 15.39853,2.91041 4.55089,1.05834 9.1017,-1.77279 10.16011,-6.32365 1.05831,-4.5508 -1.77284,-9.10121 -6.32365,-10.15957 -4.78901,-1.11123 -9.57781,0.714 -13.38781,-2.43449 -2.9369,-2.51356 -7.22286,-2.69851 -10.37145,-0.44958 -5.82081,4.04816 -13.36157,2.67219 -20.47886,2.67219 -3.54851,-3e-5 -7.09583,0.33629 -10.49083,0.20878 v -20.80133 -4.43899 c 0,-17.16024 -13.91383,-31.0746 -31.07407,-31.0746 h -4.43953 c -2.45546,0 -4.43902,1.98411 -4.43902,4.43952 0,17.16022 13.91436,31.07407 31.0746,31.07407 v 18.62884 c -0.3838,-0.21558 -0.76266,-0.45104 -1.13636,-0.70848 -2.9369,-2.0902 -6.85279,-2.09018 -9.78958,0 -5.95321,4.10102 -13.22922,2.67219 -20.50521,2.67219 -2.00586,0 -4.04257,0.10774 -6.06525,0.17468 -2.96953,-0.61582 -5.93075,-0.16894 -8.65116,-0.53848 0.61515,-1.43203 0.96064,-3.01199 0.96064,-4.68448 v -60.15188 h 6.01515 c 16.54191,0 30.07619,-13.15839 30.07619,-30.07619 0,-9.77474 -5.26322,-18.79775 -12.78215,-24.06108 0.37584,-1.87973 0.75189,-3.75941 0.75189,-6.01511 0,-19.92546 -16.16594,-36.09134 -36.09134,-36.09134 z m 88.29125,96.45973 c -11.65286,0 -21.8077,6.42294 -27.12082,15.91169 4.81372,5.22992 8.07392,11.91599 9.05888,19.32387 15.20418,-2.01149 26.94048,-15.03743 26.94048,-30.79654 0,-2.45544 -1.98413,-4.43902 -4.43952,-4.43902 z"
       id="path881"
       inkscape:connector-curvature="0" />
    <path
       id="path914"
       d="m -706.8174,-160.28443 c 0,-13.97 11.35063,-25.32063 25.32063,-25.32063 12.77937,0 23.54791,9.525 25.13541,22.19854 l 0.26459,2.16959 c 0.58208,4.6302 -2.69875,8.86354 -7.35542,9.44562 -4.65667,0.58208 -8.86354,-2.69875 -9.44563,-7.35542 l -0.26458,-2.16958 c -0.52917,-4.20687 -4.10104,-7.35542 -8.33437,-7.35542 -4.63021,0 -8.3873,3.75709 -8.3873,8.3873 v 25.47937 h 50.8 v -25.47937 c 0,-13.97 11.35062,-25.32063 25.32062,-25.32063 12.77938,0 23.54792,9.525 25.13542,22.19854 l 0.26458,2.16959 c 0.58209,4.6302 -2.69875,8.86354 -7.35541,9.44562 -4.65667,0.58208 -8.86354,-2.69875 -9.44563,-7.35542 l -0.26458,-2.16958 c -0.52917,-4.20687 -4.10104,-7.35542 -8.33438,-7.35542 -4.6302,0 -8.38729,3.75709 -8.38729,8.3873 v 61.727286 c -0.42333,0.264584 -0.87312,0.529167 -1.27,0.820209 -4.7625,3.280833 -10.60979,5.371038 -15.66333,5.371038 v 0 -25.505833 h -50.8 v 25.532293 c -5.02708,0 -10.90083,-2.090207 -15.63687,-5.37104 -0.42333,-0.291042 -0.84667,-0.582083 -1.29646,-0.820208 z m 47.22813,69.373743 c 5.95312,4.101041 13.22916,6.905631 20.5052,6.905631 7.11729,0 14.65792,-2.8575 20.47875,-6.905631 v 0 c 3.14854,-2.24896 7.43479,-2.06375 10.37167,0.44979 3.81,3.14854 8.59895,5.556251 13.38791,6.667501 4.55084,1.05834 7.38188,5.60917 6.32354,10.16 -1.05833,4.55084 -5.60916,7.381879 -10.16,6.32354 -6.48229,-1.50812 -11.87979,-4.36562 -15.39875,-6.61458 -7.67291,4.1275 -16.27187,6.852709 -25.00312,6.852709 -8.4402,0 -16.03375,-2.619379 -21.2725,-5.000629 -1.53458,-0.71437 -2.93687,-1.40229 -4.1275,-2.03729 -1.19062,0.635 -2.56645,1.34938 -4.1275,2.03729 -5.23875,2.38125 -12.83229,5.000629 -21.2725,5.000629 -8.73125,0 -17.3302,-2.725209 -25.00312,-6.826249 -3.54542,2.2225 -8.91646,5.10646 -15.39875,6.61458 -4.55083,1.058339 -9.10167,-1.77271 -10.16,-6.32354 -1.05834,-4.55083 1.77271,-9.10167 6.32354,-10.16 4.78896,-1.11125 9.57792,-3.518961 13.38792,-6.667501 2.93687,-2.48708 7.22312,-2.67229 10.37166,-0.44979 v 0 c 5.8473,4.021671 13.36146,6.879171 20.47875,6.879171 7.27605,0 14.55209,-2.80459 20.50521,-6.905631 2.93688,-2.09021 6.85271,-2.09021 9.78959,0 z"
       inkscape:connector-curvature="0"
       style="stroke-width:0.26458332" />
    <path
       id="path925"
       d="m -658.77134,109.55105 c -2.35479,0 -4.60375,0.97896 -6.19125,2.69875 -1.5875,1.71979 -2.43417,4.02167 -2.24896,6.37646 l 7.62,106.73291 c 0.79375,11.08605 10.00125,19.65855 21.11375,19.65855 h 44.07958 c 11.1125,0 20.32,-8.5725 21.11375,-19.65855 l 7.62,-106.73291 c 0.15875,-2.35479 -0.635,-4.65667 -2.24896,-6.37646 -1.61395,-1.71979 -3.83645,-2.69875 -6.19125,-2.69875 z m 10.84791,41.40729 -1.74625,-24.47396 h 66.46334 l -1.74625,24.47396 -6.40292,3.20146 c -5.13292,2.56646 -11.16542,2.56646 -16.29833,0 -5.52979,-2.75167 -12.03854,-2.75167 -17.56834,0 -5.13291,2.56646 -11.16541,2.56646 -16.29833,0 z"
       inkscape:connector-curvature="0"
       style="stroke-width:0.26458332" />
    <path
       style="stroke-width:0.26458332;fill:#4d4d4d"
       d="m 175.93119,48.593817 c -2.35479,0 -4.57742,0.979271 -6.19136,2.69906 -1.61398,1.719789 -2.4077,4.021566 -2.24895,6.376355 l 7.62018,106.733018 c 0.79375,11.08605 10.00146,19.65875 21.11396,19.65875 h 5.30461 30.01158 8.35919 28.38019 5.30458 0.031 c 0.33686,0 0.67191,-0.009 1.0051,-0.0248 0.003,-1.5e-4 0.006,1.4e-4 0.009,0 v -5.2e-4 c 10.63945,-0.51777 19.29982,-8.89696 20.06854,-19.63343 l 7.6202,-106.733018 c 0.15875,-2.354789 -0.63498,-4.656566 -2.24896,-6.376355 -1.61395,-1.719789 -3.83655,-2.69906 -6.19134,-2.69906 h -25.59844 v 5.16e-4 h -27.36578 -9.3736 -30.01158 v -5.16e-4 z m 9.10175,16.933333 h 12.79252 v 5.16e-4 h 33.71575 9.3736 33.71578 v -5.16e-4 h 10.14666 l -1.74614,24.473958 -6.40323,3.201871 c -1.63129,0.81565 -3.35355,1.370955 -5.10874,1.667598 -0.0213,0.0036 -0.0427,0.0073 -0.0641,0.01085 -0.29633,0.04899 -0.59351,0.08926 -0.89141,0.123507 -0.0581,0.0066 -0.11602,0.01463 -0.17415,0.02067 -0.14824,0.0156 -0.29694,0.02887 -0.44545,0.04083 -0.18129,0.01434 -0.36261,0.02675 -0.54417,0.03565 -0.016,8.1e-4 -0.032,0.0023 -0.048,0.0031 -0.10093,0.0048 -0.20185,0.0067 -0.30281,0.0098 -0.18669,0.0056 -0.37343,0.009 -0.56018,0.0088 -0.0651,3.2e-5 -0.13025,0.0017 -0.19534,0.001 -2.71912,-0.03189 -5.43253,-0.671684 -7.93284,-1.921846 -2.7649,-1.37583 -5.77435,-2.06344 -8.78396,-2.06344 -3.00966,0 -6.01959,0.68761 -8.78448,2.06344 -2.39276,1.196375 -4.9811,1.833248 -7.58248,1.914094 -0.12505,0.0029 -0.25011,0.0059 -0.37518,0.0062 -0.086,8.99e-4 -0.1719,0.0019 -0.25787,0.0015 -2.71862,-0.03211 -5.43197,-0.671922 -7.93181,-1.921846 -2.76489,-1.375841 -5.77432,-2.06344 -8.78395,-2.06344 -3.00966,0 -6.01959,0.687599 -8.78449,2.06344 -2.51327,1.256626 -5.24189,1.894377 -7.97523,1.920296 -2.71436,-0.03415 -5.42303,-0.672362 -7.9189,-1.920296 l -6.4032,-3.201871 z"
       id="path925-3"
       inkscape:connector-curvature="0" />
    <path
       style="stroke-width:0.26458332"
       d="m -658.17427,-32.657207 v 16.93333 h 43.08937 v -16.93333 z m 20.03549,42.5452001 c -3.00966,0 -6.01959,0.6876089 -8.78449,2.0634399 -3.52073,1.76036 -7.46442,2.312839 -11.251,1.6583 v 89.199717 h 42.07496 c 0.33999,0 0.67816,-0.009 1.01441,-0.0248 V 12.815483 c -4.64677,1.65849 -9.79929,1.37129 -14.26993,-0.864039 -2.76489,-1.375831 -5.77432,-2.0634409 -8.78395,-2.0634409 z"
       id="path925-3-3"
       inkscape:connector-curvature="0" />
    <path
       inkscape:connector-curvature="0"
       style="stroke-width:0.26458332"
       d="m -691.88993,-32.657227 v 16.93334 h 43.08938 v -16.93334 z m 20.03549,42.5452201 c -3.00966,0 -6.01959,0.6876009 -8.78448,2.0634399 -3.52074,1.76035 -7.46443,2.312839 -11.25101,1.658289 v 89.199728 h 42.07496 c 0.33999,0 0.67816,-0.009 1.01442,-0.0248 V 12.815464 c -4.64677,1.658499 -9.7993,1.371291 -14.26993,-0.864031 -2.7649,-1.375839 -5.77432,-2.0634399 -8.78396,-2.0634399 z"
       id="path925-3-6-5" />
    <path
       style="stroke-width:0.26458332"
       d="m -621.43494,-32.657727 v 16.93333 h 16.49666 l -1.74614,24.4739621 -6.40323,3.2018679 c -2.62726,1.31363 -5.48995,1.952972 -8.34729,1.921851 v 88.936166 h 5.30458 c 11.1125,0 20.32021,-8.572697 21.11396,-19.658747 l 7.62018,-106.73302 c 0.15875,-2.35479 -0.63497,-4.65656 -2.24895,-6.37635 -1.61394,-1.71979 -3.83654,-2.69906 -6.19133,-2.69906 z"
       id="path925-7-6"
       inkscape:connector-curvature="0" />
    <path
       style="stroke-width:0.26458332"
       d="m -688.18574,-32.657727 v 16.93333 h -16.49666 l 1.74614,24.4739621 6.40323,3.2018679 c 2.62726,1.31363 5.48995,1.952972 8.34729,1.921851 v 88.936166 h -5.30458 c -11.1125,0 -20.32021,-8.572697 -21.11396,-19.658747 l -7.62018,-106.73302 c -0.15875,-2.35479 0.63497,-4.65656 2.24895,-6.37635 1.61394,-1.71979 3.83654,-2.69906 6.19133,-2.69906 z"
       id="path925-7-5-2"
       inkscape:connector-curvature="0" />
    <path
       style="color:#000000;font-style:normal;font-variant:normal;font-weight:normal;font-stretch:normal;font-size:medium;line-height:normal;font-family:sans-serif;font-variant-ligatures:normal;font-variant-position:normal;font-variant-caps:normal;font-variant-numeric:normal;font-variant-alternates:normal;font-feature-settings:normal;text-indent:0;text-align:start;text-decoration:none;text-decoration-line:none;text-decoration-style:solid;text-decoration-color:#000000;letter-spacing:normal;word-spacing:normal;text-transform:none;writing-mode:lr-tb;direction:ltr;text-orientation:mixed;dominant-baseline:auto;baseline-shift:baseline;text-anchor:start;white-space:normal;shape-padding:0;clip-rule:nonzero;display:inline;overflow:visible;visibility:visible;opacity:1;isolation:auto;mix-blend-mode:normal;color-interpolation:sRGB;color-interpolation-filters:linearRGB;solid-color:#000000;solid-opacity:1;vector-effect:none;fill:#4d4d4d;fill-opacity:1;fill-rule:nonzero;stroke:none;stroke-width:13.10582447;stroke-linecap:round;stroke-linejoin:round;stroke-miterlimit:4;stroke-dasharray:none;stroke-dashoffset:0;stroke-opacity:1;color-rendering:auto;image-rendering:auto;shape-rendering:auto;text-rendering:auto;enable-background:accumulate"
       d="m 1117.5221,550.78485 c -5.9861,0 -11.2026,3.29971 -13.9322,8.1741 2.473,2.6866 4.1479,6.12155 4.6538,9.92702 7.8104,-1.03332 13.8393,-7.72494 13.8393,-15.82042 0,-1.26138 -1.0193,-2.2807 -2.2807,-2.2807 z m 51.3692,0 c -5.9861,0 -11.2028,3.29971 -13.9322,8.1741 2.4727,2.6866 4.1478,6.12155 4.6537,9.92702 7.8104,-1.03332 13.8393,-7.72494 13.8393,-15.82042 0,-1.26138 -1.0194,-2.2807 -2.2806,-2.2807 z m 51.3685,0 c -5.986,0 -11.2027,3.29971 -13.9321,8.1741 2.4729,2.6866 4.1477,6.12155 4.6537,9.92702 7.8103,-1.03332 13.8392,-7.72494 13.8392,-15.82042 0,-1.26138 -1.0193,-2.2807 -2.2806,-2.2807 z m 51.3691,0 c -5.9861,0 -11.2027,3.29971 -13.9322,8.1741 2.4729,2.6866 4.1479,6.12155 4.6537,9.92702 7.8105,-1.03332 13.8393,-7.72494 13.8393,-15.82042 0,-1.26138 -1.0193,-2.2807 -2.2806,-2.2807 z m -183.752,4.56086 c -1.2614,0 -2.2806,1.01932 -2.2806,2.28068 0,8.81523 7.1479,15.96271 15.9632,15.96271 v 11.40239 c 0,1.26133 1.0187,2.28017 2.2802,2.28017 1.2613,0 2.2802,-1.01884 2.2802,-2.28017 v -11.40239 -2.28016 c 0,-8.81525 -7.1475,-15.96323 -15.9629,-15.96323 z m 51.3686,0 c -1.2615,0 -2.2802,1.01932 -2.2802,2.28068 0,8.81523 7.1475,15.96271 15.9628,15.96271 v 11.40239 c 0,1.26133 1.0192,2.28017 2.2806,2.28017 1.2615,0 2.2801,-1.01884 2.2801,-2.28017 v -11.40239 -2.28016 c 0,-8.81525 -7.1474,-15.96323 -15.9627,-15.96323 z m 51.369,0 c -1.2613,0 -2.2806,1.01932 -2.2806,2.28068 0,8.81523 7.1479,15.96271 15.9632,15.96271 v 11.40239 c 0,1.26133 1.0187,2.28017 2.2802,2.28017 1.2613,0 2.2802,-1.01884 2.2802,-2.28017 v -11.40239 -2.28016 c 0,-8.81525 -7.1475,-15.96323 -15.9629,-15.96323 z m 51.3691,0 c -1.2614,0 -2.2806,1.01932 -2.2806,2.28068 0,8.81523 7.1474,15.96271 15.9627,15.96271 v 11.40239 c 0,1.26133 1.0193,2.28017 2.2807,2.28017 1.2614,0 2.28,-1.01884 2.28,-2.28017 v -11.40239 -2.28016 c 0,-8.81525 -7.1473,-15.96323 -15.9626,-15.96323 z m -160.8839,20.9864 a 6.5535674,6.5535674 0 0 0 -6.455,6.6458 v 47.47377 a 6.5535674,6.5535674 0 0 0 6.5534,6.55345 h 98.2622 a 6.5535674,6.5535674 0 0 0 2.114,0 h 98.2825 a 6.5535674,6.5535674 0 0 0 6.5541,-6.55345 v -47.47377 a 6.5537,6.5537 0 1 0 -13.1074,0 v 19.72974 a 4.3294195,4.3294195 0 0 0 -3.9733,-2.6222 4.3294195,4.3294195 0 0 0 -4.3296,4.32972 4.3294195,4.3294195 0 0 0 4.3296,4.32918 4.3294195,4.3294195 0 0 0 3.9733,-2.61369 v 17.76906 h -86.2233 v -4.15243 a 4.3294195,4.3294195 0 0 0 2.2177,0.6171 4.3294195,4.3294195 0 0 0 4.3293,-4.3297 4.3294195,4.3294195 0 0 0 -4.3293,-4.32917 4.3294195,4.3294195 0 0 0 -2.2177,0.6166 v -16.36213 a 4.3294195,4.3294195 0 0 0 1.7849,0.38941 4.3294195,4.3294195 0 0 0 4.3297,-4.32916 4.3294195,4.3294195 0 0 0 -4.3297,-4.32921 4.3294195,4.3294195 0 0 0 -3.7855,2.23124 6.5535674,6.5535674 0 0 0 -11.1048,4.8155 v 6.07013 a 4.3294195,4.3294195 0 0 0 -1.9396,3.60727 4.3294195,4.3294195 0 0 0 1.9396,3.60671 v 15.87784 h -86.2232 v -40.92181 a 6.5535674,6.5535674 0 0 0 -6.6519,-6.6458 z m 49.6647,0 a 6.5535674,6.5535674 0 0 0 -6.4535,6.6458 v 21.32741 a 6.5535674,6.5535674 0 1 0 13.1053,0 v -21.32741 a 6.5535674,6.5535674 0 0 0 -6.6518,-6.6458 z m 99.3307,0 a 6.5535674,6.5535674 0 0 0 -6.4558,6.6458 v 17.18344 a 4.3294195,4.3294195 0 0 0 -0.7918,-0.0759 4.3294195,4.3294195 0 0 0 -4.3295,4.32972 4.3294195,4.3294195 0 0 0 4.3295,4.32918 4.3294195,4.3294195 0 0 0 2.0301,-0.50877 6.5535674,6.5535674 0 0 0 11.8671,-3.93026 v -8.19306 a 4.3294195,4.3294195 0 0 0 2.9329,-4.09202 4.3294195,4.3294195 0 0 0 -2.9329,-4.09303 v -4.9493 a 6.5535674,6.5535674 0 0 0 -6.6496,-6.64579 z m -134.1954,11.35892 a 4.3294188,4.3294188 0 0 0 -4.3291,4.32921 4.3294188,4.3294188 0 0 0 4.3291,4.32916 4.3294188,4.3294188 0 0 0 4.3296,-4.32916 4.3294188,4.3294188 0 0 0 -4.3296,-4.32921 z m 23.2416,0 a 4.3294195,4.3294195 0 0 0 -4.3297,4.32921 4.3294195,4.3294195 0 0 0 4.3297,4.32916 4.3294195,4.3294195 0 0 0 4.3292,-4.32916 4.3294195,4.3294195 0 0 0 -4.3292,-4.32921 z m 23.241,0 a 4.3294195,4.3294195 0 0 0 -4.3291,4.32921 4.3294195,4.3294195 0 0 0 4.3291,4.32916 4.3294195,4.3294195 0 0 0 4.3298,-4.32916 4.3294195,4.3294195 0 0 0 -4.3298,-4.32921 z m 23.2416,0 a 4.3294195,4.3294195 0 0 0 -4.3296,4.32921 4.3294195,4.3294195 0 0 0 4.3296,4.32916 4.3294195,4.3294195 0 0 0 4.3293,-4.32916 4.3294195,4.3294195 0 0 0 -4.3293,-4.32921 z m 46.4828,0 a 4.3294195,4.3294195 0 0 0 -4.3297,4.32921 4.3294195,4.3294195 0 0 0 4.3297,4.32916 4.3294195,4.3294195 0 0 0 4.3293,-4.32916 4.3294195,4.3294195 0 0 0 -4.3293,-4.32921 z m 46.4827,0 a 4.3294195,4.3294195 0 0 0 -4.3296,4.32921 4.3294195,4.3294195 0 0 0 4.3296,4.32916 4.3294195,4.3294195 0 0 0 4.3292,-4.32916 4.3294195,4.3294195 0 0 0 -4.3292,-4.32921 z m -151.9488,12.39442 a 4.3294195,4.3294195 0 0 0 -4.3294,4.32972 4.3294195,4.3294195 0 0 0 4.3294,4.32918 4.3294195,4.3294195 0 0 0 4.3297,-4.32918 4.3294195,4.3294195 0 0 0 -4.3297,-4.32972 z m 46.4826,0 a 4.3294195,4.3294195 0 0 0 -4.3292,4.32972 4.3294195,4.3294195 0 0 0 4.3292,4.32918 4.3294195,4.3294195 0 0 0 4.3298,-4.32918 4.3294195,4.3294195 0 0 0 -4.3298,-4.32972 z m 46.4828,0 a 4.3294195,4.3294195 0 0 0 -4.3293,4.32972 4.3294195,4.3294195 0 0 0 4.3293,4.32918 4.3294195,4.3294195 0 0 0 4.3296,-4.32918 4.3294195,4.3294195 0 0 0 -4.3296,-4.32972 z m 46.4826,0 a 4.3294195,4.3294195 0 0 0 -4.3291,4.32972 4.3294195,4.3294195 0 0 0 4.3291,4.32918 4.3294195,4.3294195 0 0 0 4.3297,-4.32918 4.3294195,4.3294195 0 0 0 -4.3297,-4.32972 z m -149.756,11.62007 a 4.3294195,4.3294195 0 0 0 -4.3298,4.32917 4.3294195,4.3294195 0 0 0 4.3298,4.3297 4.3294195,4.3294195 0 0 0 4.3292,-4.3297 4.3294195,4.3294195 0 0 0 -4.3292,-4.32917 z m 23.2412,0 a 4.3294195,4.3294195 0 0 0 -4.3294,4.32917 4.3294195,4.3294195 0 0 0 4.3294,4.3297 4.3294195,4.3294195 0 0 0 4.3295,-4.3297 4.3294195,4.3294195 0 0 0 -4.3295,-4.32917 z m 23.2415,0 a 4.3294195,4.3294195 0 0 0 -4.3298,4.32917 4.3294195,4.3294195 0 0 0 4.3298,4.3297 4.3294195,4.3294195 0 0 0 4.3292,-4.3297 4.3294195,4.3294195 0 0 0 -4.3292,-4.32917 z m 23.241,0 a 4.3294195,4.3294195 0 0 0 -4.3291,4.32917 4.3294195,4.3294195 0 0 0 4.3291,4.3297 4.3294195,4.3294195 0 0 0 4.3294,-4.3297 4.3294195,4.3294195 0 0 0 -4.3294,-4.32917 z m 46.4827,0 a 4.3294195,4.3294195 0 0 0 -4.3291,4.32917 4.3294195,4.3294195 0 0 0 4.3291,4.3297 4.3294195,4.3294195 0 0 0 4.3298,-4.3297 4.3294195,4.3294195 0 0 0 -4.3298,-4.32917 z m 23.2417,0 a 4.3294195,4.3294195 0 0 0 -4.3297,4.32917 4.3294195,4.3294195 0 0 0 4.3297,4.3297 4.3294195,4.3294195 0 0 0 4.3291,-4.3297 4.3294195,4.3294195 0 0 0 -4.3291,-4.32917 z m 23.2411,0 a 4.3294195,4.3294195 0 0 0 -4.3291,4.32917 4.3294195,4.3294195 0 0 0 4.3291,4.3297 4.3294195,4.3294195 0 0 0 4.3296,-4.3297 4.3294195,4.3294195 0 0 0 -4.3296,-4.32917 z"
       id="path1092"
       inkscape:connector-curvature="0" />
    <path
       style="color:#000000;font-style:normal;font-variant:normal;font-weight:normal;font-stretch:normal;font-size:medium;line-height:normal;font-family:sans-serif;font-variant-ligatures:normal;font-variant-position:normal;font-variant-caps:normal;font-variant-numeric:normal;font-variant-alternates:normal;font-feature-settings:normal;text-indent:0;text-align:start;text-decoration:none;text-decoration-line:none;text-decoration-style:solid;text-decoration-color:#000000;letter-spacing:normal;word-spacing:normal;text-transform:none;writing-mode:lr-tb;direction:ltr;text-orientation:mixed;dominant-baseline:auto;baseline-shift:baseline;text-anchor:start;white-space:normal;shape-padding:0;clip-rule:nonzero;display:inline;overflow:visible;visibility:visible;opacity:1;isolation:auto;mix-blend-mode:normal;color-interpolation:sRGB;color-interpolation-filters:linearRGB;solid-color:#000000;solid-opacity:1;vector-effect:none;fill:#4d4d4d;fill-opacity:1;fill-rule:nonzero;stroke:none;stroke-width:9.01475334;stroke-linecap:round;stroke-linejoin:miter;stroke-miterlimit:4;stroke-dasharray:none;stroke-dashoffset:0;stroke-opacity:1;color-rendering:auto;image-rendering:auto;shape-rendering:auto;text-rendering:auto;enable-background:accumulate"
       d="m 807.71347,439.53704 c -7.57303,0 -13.70676,6.13408 -13.70676,13.70709 v 2.48981 c -1.9076,-1.00518 -4.08913,-1.57602 -6.39649,-1.57602 -2.89844,4.12556 6.24296,8.66712 6.39649,13.70674 v 3.65514 17.34038 c 0,2.02176 1.6334,3.65514 3.65513,3.65514 0.16865,0 0.33414,-0.0124 0.49667,-0.0344 0.28295,-0.0679 0.56583,-0.14257 0.84821,-0.22325 1.35367,-0.53504 2.31026,-1.85137 2.31026,-3.39748 v -17.34038 -3.65514 -14.62053 c 0,-3.52949 2.86692,-6.39647 6.39649,-6.39647 3.52947,0 6.39646,2.86698 6.39646,6.39647 v 1.48463 c -3.34675,1.14225 -5.48269,3.9409 -5.48269,8.00725 0,3.18684 2.89005,8.54405 7.5389,12.74746 0.43408,0.39979 1.01644,0.60526 1.59893,0.60526 0.58257,0 1.16528,-0.20547 1.5993,-0.60526 4.64891,-4.20341 7.53854,-9.56062 7.53854,-12.74746 0,-4.06635 -2.13602,-6.87643 -5.4827,-8.00725 v -1.48463 c 0,-7.57301 -6.13373,-13.70709 -13.70674,-13.70709 z m -8.70675,52.72062 c -0.26879,0.10625 -0.55236,0.18318 -0.84821,0.22325 -0.0497,0.012 -0.0993,0.0257 -0.14908,0.0373 -0.87493,0.20347 -1.65751,0.59353 -2.31706,1.11768 -3.27908,-3.32806 -6.43544,-6.82185 -9.45354,-10.48449 a 4.5078274,4.5078274 0 0 0 -3.53759,-1.69141 4.5078274,4.5078274 0 0 0 -3.41827,7.42458 c 69.70826,84.5951 207.56037,84.72779 276.88133,0.12471 a 4.5079334,4.5079334 0 1 0 -6.9738,-5.71419 c -2.3236,2.83588 -4.7328,5.56752 -7.2157,8.2022 v -19.97746 -3.65514 c 0.1536,-5.03962 9.295,-9.58118 6.3965,-13.70674 -2.3073,0 -4.4889,0.57084 -6.3965,1.57602 v -2.48981 c 0,-7.57301 -6.1341,-13.70709 -13.7071,-13.70709 -7.573,0 -13.7067,6.13408 -13.7067,13.70709 v 1.48463 c -3.3467,1.13082 -5.4827,3.9409 -5.4827,8.00725 0,3.18684 2.89,8.54405 7.5389,12.74746 0.434,0.39979 1.0164,0.60526 1.5989,0.60526 0.5825,0 1.1652,-0.20547 1.5993,-0.60526 4.6488,-4.20341 7.5389,-9.56062 7.5389,-12.74746 0,-4.06635 -2.1363,-6.865 -5.4831,-8.00725 v -1.48463 c 0,-3.52949 2.867,-6.39647 6.3965,-6.39647 3.5296,0 6.3965,2.86698 6.3965,6.39647 v 14.62053 3.65514 20.98298 c 0,-8.8e-4 -0.01,-0.002 -0.011,-0.003 -3.3209,-0.77057 -6.642,-2.44039 -9.284,-4.62373 -2.0366,-1.74297 -5.0087,-1.87131 -7.192,-0.31177 -4.0364,2.80716 -9.2655,4.78858 -14.201,4.78858 -5.04546,2e-5 -10.09096,-1.94473 -14.21906,-4.78858 -2.0366,-1.44944 -4.7521,-1.44946 -6.7886,0 -4.1282,2.84383 -9.1737,4.78854 -14.2191,4.78858 -3.8439,-4e-5 -7.8523,-1.20504 -11.3539,-3.05417 -0.6733,-0.44421 -1.3203,-0.91906 -1.9297,-1.42264 -1.2525,-1.07201 -2.8588,-1.53218 -4.418,-1.36566 -1.3218,0.0238 -2.633,0.48802 -3.6914,1.38429 -0.5573,0.46061 -1.1466,0.89634 -1.758,1.30761 -3.5359,1.90772 -7.6214,3.15057 -11.5255,3.15057 -5.0456,-2e-5 -10.0911,-1.94475 -14.2192,-4.78858 -2.0366,-1.44944 -4.75201,-1.44942 -6.78851,0 -4.1282,2.84383 -9.1737,4.78858 -14.2192,4.78858 -4.3153,0 -8.8407,-1.51465 -12.6202,-3.75941 -0.3141,-0.23249 -0.6217,-0.4713 -0.9195,-0.7174 -1.3115,-1.12243 -3.0108,-1.57431 -4.6378,-1.33807 -1.1575,0.11412 -2.2842,0.56815 -3.2154,1.3567 -0.2323,0.19195 -0.4715,0.37815 -0.7138,0.56188 -3.81,2.3245 -8.4332,3.8963 -12.826,3.8963 -5.0455,-2e-5 -10.091,-1.94475 -14.2191,-4.78858 -2.0366,-1.44944 -4.752,-1.44942 -6.7885,0 -4.1282,2.84383 -9.17375,4.78858 -14.21923,4.78858 -4.93544,0 -10.14615,-1.9815 -14.20091,-4.77031 -2.1833,-1.54116 -5.15544,-1.4125 -7.19201,0.31213 -2.37736,1.96465 -5.30453,3.51089 -8.28676,4.36286 z m 47.29311,6.95729 c 0.8256,0.44034 1.798,0.91724 2.8621,1.41262 3.6328,1.65126 8.8986,3.46776 14.7513,3.4677 1.2964,0 2.5884,-0.0873 3.8709,-0.25156 0.9568,0.2936 2.0009,0.34759 3.0456,0.10466 4.4292,-1.03045 8.104,-2.98508 10.563,-4.5166 2.4421,1.54539 6.1259,3.47199 10.5371,4.49832 1.029,0.23929 2.0573,0.19065 3.0023,-0.0914 1.2966,0.16766 2.603,0.25657 3.9138,0.25657 5.8528,-3e-5 11.1185,-1.81649 14.7514,-3.4677 1.0824,-0.47707 2.0364,-0.97226 2.86211,-1.41262 0.8256,0.44034 1.7979,0.91724 2.8621,1.41262 3.6327,1.65126 8.8985,3.46776 14.7513,3.4677 1.2349,0 2.4658,-0.0799 3.6885,-0.22934 0.9365,0.27396 1.9539,0.3195 2.9717,0.0828 4.4951,-1.04579 8.2195,-3.04567 10.678,-4.58683 0.056,0.0301 0.1138,0.0586 0.1702,0.0885 2.4423,1.54231 6.1139,3.45741 10.5078,4.4797 1.0022,0.23305 2.0042,0.19358 2.9288,-0.0692 1.2367,0.15272 2.4821,0.23437 3.7315,0.23435 5.8527,2e-5 11.1185,-1.81644 14.7513,-3.4677 1.0825,-0.47703 2.0364,-0.97232 2.8621,-1.41262 0.8256,0.44032 1.798,0.91719 2.8621,1.41262 3.6328,1.65122 8.8985,3.4677 14.75126,3.4677 6.0546,0 12.0175,-1.88981 17.3383,-4.75201 1.9946,1.27484 4.8606,2.83103 8.2957,3.92818 -8.0024,6.83425 -16.591,12.79411 -25.6189,17.87647 -0.8004,-1.14515 -2.0096,-2.01054 -3.477,-2.35184 -3.32086,-0.77057 -6.64166,-2.44003 -9.28366,-4.62338 -2.0366,-1.74298 -5.009,-1.87166 -7.1924,-0.3121 -4.0364,2.80714 -9.2655,4.78893 -14.2009,4.78893 -5.0456,10e-6 -10.0907,-1.9451 -14.2188,-4.78893 -2.0366,-1.44946 -4.7524,-1.44948 -6.7889,0 -4.1282,2.84381 -9.1737,4.78889 -14.2192,4.78893 -3.8442,-4e-5 -7.8527,-1.20546 -11.3545,-3.05491 -0.673,-0.44404 -1.3195,-0.91854 -1.9287,-1.42192 -1.252,-1.07156 -2.8576,-1.53195 -4.4162,-1.36601 -1.32251,0.0233 -2.63451,0.48752 -3.69351,1.38429 -0.5572,0.46044 -1.1458,0.89648 -1.757,1.30761 -3.5361,1.908 -7.6221,3.15094 -11.5265,3.15094 -5.0456,-4e-5 -10.0911,-1.94512 -14.2192,-4.78893 -2.0366,-1.44946 -4.752,-1.44943 -6.7885,0 -4.1282,2.84381 -9.1737,4.78893 -14.2192,4.78893 -4.9355,0 -10.1458,-1.98152 -14.2006,-4.77031 -2.1833,-1.54116 -5.1558,-1.41287 -7.1923,0.31176 -2.642,2.18337 -5.9628,3.85281 -9.28372,4.6234 -1.24157,0.28873 -2.29744,0.95338 -3.07819,1.8444 -9.0803,-5.16325 -17.71775,-11.21096 -25.76188,-18.14201 2.48495,-0.99257 4.58232,-2.16724 6.15783,-3.15488 5.32078,2.84382 11.28357,4.73337 17.33823,4.73339 5.8528,-3e-5 11.11853,-1.81649 14.75133,-3.4677 1.0825,-0.47707 2.0364,-0.97226 2.8621,-1.41262 z m 36.0206,26.29619 c 0.8256,0.44032 1.7983,0.91757 2.8625,1.41295 3.6327,1.65128 8.8982,3.46776 14.751,3.46772 1.2348,0 2.4659,-0.0803 3.6884,-0.22969 0.9366,0.27396 1.954,0.31948 2.9718,0.0828 4.4951,-1.04579 8.2195,-3.04565 10.67801,-4.58683 0.055,0.0295 0.1116,0.0574 0.167,0.0867 2.4422,1.54264 6.1155,3.45909 10.5113,4.48183 1.002,0.23301 2.0033,0.19307 2.9277,-0.0695 1.2371,0.1528 2.4825,0.23472 3.7322,0.23472 5.8528,2e-5 11.1185,-1.81644 14.7514,-3.46772 1.0824,-0.47701 2.0364,-0.97265 2.8621,-1.41295 0.8256,0.4403 1.7983,0.91753 2.8624,1.41295 3.6328,1.65122 8.8982,3.46772 14.751,3.46772 6.0546,0 12.0178,-1.88983 17.3386,-4.75203 1.0356,0.66191 2.308,1.39946 3.7709,2.10959 -45.9707,20.80083 -100.70581,20.6908 -146.71991,-0.30675 1.1965,-0.61038 2.2531,-1.22734 3.142,-1.78457 5.3207,2.84382 11.2835,4.73372 17.3382,4.73376 5.8528,-4e-5 11.1185,-1.8165 14.7513,-3.46772 1.0825,-0.47707 2.0364,-0.97259 2.8621,-1.41295 z"
       id="path1305"
       inkscape:connector-curvature="0" />
    <path
       id="path1429"
       d="m 1322.9188,652.751 c -2.3548,0 -4.6037,0.97896 -6.1912,2.69875 -1.5875,1.71979 -2.4342,4.02167 -2.249,6.37646 l 7.62,106.73291 c 0.7938,11.08605 10.0013,19.65855 21.1138,19.65855 h 44.0795 c 11.1125,0 20.32,-8.5725 21.1138,-19.65855 l 7.62,-106.73291 c 0.1587,-2.35479 -0.635,-4.65667 -2.249,-6.37646 -1.6139,-1.71979 -3.8364,-2.69875 -6.1912,-2.69875 z m 13.4938,78.71354 -4.3921,-61.78021 h 66.4633 l -4.3921,61.78021 -3.4396,1.71979 c -5.3181,2.6723 -11.6152,2.6723 -16.9333,0 -5.3181,-2.67229 -11.6152,-2.67229 -16.9333,0 -5.3181,2.6723 -11.6152,2.6723 -16.9334,0 z m 45.7729,-26.85521 c 0,-6.35 -8.9165,-18.54729 -13.8113,-24.73854 -1.6139,-2.03729 -4.6302,-2.03729 -6.2441,0 -4.8948,6.19125 -13.8113,18.38854 -13.8113,24.73854 0,8.75771 7.5936,15.875 16.9333,15.875 9.3398,0 16.9334,-7.11729 16.9334,-15.875 z"
       inkscape:connector-curvature="0"
       style="stroke-width:0.26458332;fill:#4d4d4d" />
    <text
       xml:space="preserve"
       style="font-style:normal;font-weight:normal;font-size:30.2333889px;line-height:1.25;font-family:sans-serif;letter-spacing:0px;word-spacing:0px;fill:#4d4d4d;fill-opacity:1;stroke:none;stroke-width:0.28566983;stroke-miterlimit:4;stroke-dasharray:none;"
       x="1165.4518"
       y="871.24872"
       id="text1442"><tspan
         sodipodi:role="line"
         id="tspan1440"
         x="1165.4518"
         y="871.24872"
         style="font-style:normal;font-variant:normal;font-weight:bold;font-stretch:normal;font-family:Ubuntu;-inkscape-font-specification:'Ubuntu Bold';stroke-width:0.28566983;stroke-miterlimit:4;stroke-dasharray:none;fill:#4d4d4d;">Created with icons from fontawesome.com</tspan></text>
    <path
       id="path859-8"
       d="m -971.97186,166.74258 c -2.80459,-2.11666 -6.61459,-2.24895 -9.60438,-0.39687 -2.98979,1.85208 -4.47146,5.3975 -3.78354,8.83708 l 2.56646,12.85875 c -5.13292,2.38125 -9.76313,5.26521 -13.86417,8.33438 -4.04811,3.04271 -7.67291,6.32354 -10.76851,9.60436 l -24.6327,-14.36686 c -3.3073,-1.93146 -7.5142,-1.40229 -10.2394,1.29646 -2.7252,2.69875 -3.2808,6.87915 -1.3758,10.2129 l 12.1179,21.19314 -12.1179,21.19312 c -1.905,3.33375 -1.323,7.51417 1.4022,10.21292 2.7253,2.69876 6.9057,3.22792 10.2394,1.29646 l 24.6327,-14.36688 c 3.1221,3.25438 6.7204,6.56167 10.76857,9.60438 4.10104,3.06917 8.73125,5.95313 13.86417,8.33438 l -2.56646,12.85875 c -0.68792,3.43958 0.82021,6.95854 3.78354,8.81062 2.96333,1.85209 6.77333,1.71979 9.60437,-0.39687 l 20.53167,-15.39875 c 14.52563,-1.05834 26.85522,-7.14375 36.30084,-14.23459 10.37167,-7.77875 17.78,-17.11854 21.59,-23.68021 1.53458,-2.61937 1.53458,-5.87375 0,-8.49312 -3.81,-6.56167 -11.24479,-15.90146 -21.59,-23.68021 -9.47208,-7.09084 -21.77521,-13.17625 -36.30084,-14.23459 z m 28.78667,57.57334 a 8.4666667,8.4666667 0 1 1 16.93333,0 8.4666667,8.4666667 0 1 1 -16.93333,0 z"
       inkscape:connector-curvature="0"
       style="stroke-width:0.26458332" />
    <path
       style="stroke-width:0.27185035;fill:#4d4d4d"
       d="m 339.07423,173.27986 c -2.41947,0 -4.70321,1.00631 -6.36148,2.77332 -1.65831,1.76703 -2.47391,4.13187 -2.3108,6.55134 l 7.82949,109.66474 c 0.81555,11.39053 10.27628,20.19855 21.694,20.19855 h 5.45025 30.83586 8.5889 29.15953 5.45025 0.0321 c 0.3461,0 0.69029,-0.009 1.03263,-0.0256 0.003,-1.5e-4 0.006,1.4e-4 0.009,0 v -5.2e-4 c 10.93169,-0.53201 19.82998,-9.14112 20.6198,-20.17247 l 7.82946,-109.66475 c 0.16311,-2.41947 -0.65248,-4.78431 -2.31079,-6.55134 -1.65828,-1.76701 -3.94201,-2.77332 -6.36148,-2.77332 h -26.30146 v 5.2e-4 h -28.1174 -9.63103 -30.83586 v -5.2e-4 z m 9.35182,17.39859 h 13.14367 v 5.2e-4 h 34.64183 9.63103 34.64184 v -5.2e-4 h 10.42547 l -1.7942,25.14606 -6.57904,3.28992 c -1.6761,0.83806 -3.4456,1.40849 -5.249,1.71327 -0.0219,0.004 -0.044,0.007 -0.066,0.0111 -0.30446,0.0503 -0.60976,0.092 -0.91584,0.12712 -0.0597,0.007 -0.11926,0.0149 -0.17898,0.0212 -0.15232,0.016 -0.30507,0.0296 -0.45765,0.0418 -0.18628,0.0147 -0.37241,0.0274 -0.55896,0.0367 -0.0165,5.2e-4 -0.033,0.002 -0.0494,0.003 -0.1037,0.005 -0.20752,0.007 -0.31125,0.01 -0.19183,0.006 -0.38365,0.009 -0.57553,0.009 -0.0669,2e-5 -0.13384,0.002 -0.20072,0.002 -2.7938,-0.0328 -5.58154,-0.69005 -8.15052,-1.97455 -2.84084,-1.41362 -5.93308,-2.12013 -9.02536,-2.12013 -3.09232,0 -6.18479,0.70651 -9.02563,2.12013 -2.45847,1.22924 -5.11808,1.8836 -7.79092,1.96668 -0.12849,0.003 -0.2569,0.006 -0.3854,0.006 -0.0884,5.2e-4 -0.17649,0.002 -0.26482,0.002 -2.79329,-0.033 -5.58121,-0.69058 -8.14971,-1.97483 -2.84083,-1.41363 -5.93305,-2.12013 -9.02535,-2.12013 -3.09233,0 -6.18479,0.7065 -9.02563,2.12013 -2.5823,1.29114 -5.38584,1.94657 -8.19425,1.97319 -2.78892,-0.0351 -5.57198,-0.69098 -8.1364,-1.97319 L 350.2203,215.825 Z m 46.64314,41.63642 c 0.99277,-0.0342 1.98927,0.26156 2.81842,0.88733 l 10.8049,8.09348 c 7.63442,0.55625 14.10064,3.75447 19.079,7.4813 5.43727,4.08838 9.34508,8.99722 11.34756,12.44592 0.80655,1.3767 0.80655,3.08737 0,4.46406 -2.00248,3.44869 -5.89638,8.35754 -11.34756,12.44592 -4.96446,3.72684 -11.44458,6.92505 -19.079,7.4813 l -10.79104,8.09348 c -1.48795,1.11249 -3.49053,1.18203 -5.04801,0.20859 -1.55748,-0.97342 -2.34997,-2.82304 -1.98841,-4.63082 l 1.34879,-6.7583 c -2.69778,-1.25154 -5.13139,-2.76729 -7.28683,-4.3804 -2.12763,-1.5992 -4.01875,-3.33756 -5.65966,-5.048 l -12.94648,7.55109 c -1.75217,1.01515 -3.94949,0.73698 -5.38181,-0.68144 -1.43232,-1.41842 -1.7381,-3.61554 -0.73686,-5.3677 l 6.36881,-11.1387 -6.36881,-11.13896 c -1.00124,-1.75216 -0.70932,-3.94926 0.72301,-5.36768 1.43232,-1.41842 3.64328,-1.69659 5.38153,-0.68145 l 12.94676,7.5511 c 1.627,-1.72435 3.53203,-3.44881 5.65965,-5.04801 2.15545,-1.6131 4.58905,-3.12886 7.28683,-4.38041 l -1.34905,-6.75828 c -0.36156,-1.80779 0.41729,-3.67126 1.98868,-4.64468 0.68747,-0.42588 1.45743,-0.65213 2.22958,-0.67874 z m 22.5251,26.69609 a 4.4499382,4.4499382 0 0 0 -4.57705,4.45102 4.44994,4.44994 0 1 0 8.89988,0 4.4499382,4.4499382 0 0 0 -4.32283,-4.45102 z"
       id="path925-3-2"
       inkscape:connector-curvature="0" />
    <text
       xml:space="preserve"
       style="font-style:normal;font-weight:normal;font-size:52.91666794px;line-height:1.25;font-family:sans-serif;letter-spacing:0px;word-spacing:0px;fill:#4d4d4d;fill-opacity:1;stroke:none;stroke-width:0.58762276;stroke-miterlimit:4;stroke-dasharray:none;"
       x="-201.16394"
       y="-285.81845"
       id="text1442-7"><tspan
         sodipodi:role="line"
         id="tspan1440-8"
         x="-201.16394"
         y="-285.81845"
         style="font-style:normal;font-variant:normal;font-weight:bold;font-stretch:normal;font-size:52.91666794px;font-family:Ubuntu;-inkscape-font-specification:'Ubuntu Bold';stroke-width:0.58762276;stroke-miterlimit:4;stroke-dasharray:none;fill:#4d4d4d;">Sammeln</tspan></text>
    <text
       xml:space="preserve"
       style="font-style:normal;font-weight:normal;font-size:52.91666794px;line-height:1.25;font-family:sans-serif;letter-spacing:0px;word-spacing:0px;fill:#4d4d4d;fill-opacity:1;stroke:none;stroke-width:0.58762282;stroke-miterlimit:4;stroke-dasharray:none;"
       x="259.59192"
       y="25.495815"
       id="text1442-7-7"><tspan
         sodipodi:role="line"
         id="tspan1440-8-7"
         x="259.59192"
         y="25.495815"
         style="font-style:normal;font-variant:normal;font-weight:bold;font-stretch:normal;font-size:52.91666794px;font-family:Ubuntu;-inkscape-font-specification:'Ubuntu Bold';stroke-width:0.58762282;stroke-miterlimit:4;stroke-dasharray:none;fill:#4d4d4d;">Speichern</tspan></text>
    <text
       xml:space="preserve"
       style="font-style:normal;font-weight:normal;font-size:52.91666794px;line-height:1.25;font-family:sans-serif;letter-spacing:0px;word-spacing:0px;fill:#4d4d4d;fill-opacity:1;stroke:none;stroke-width:0.58762288;stroke-miterlimit:4;stroke-dasharray:none;"
       x="389.7207"
       y="152.92868"
       id="text1442-7-7-2"><tspan
         sodipodi:role="line"
         id="tspan1440-8-7-3"
         x="389.7207"
         y="152.92868"
         style="font-style:normal;font-variant:normal;font-weight:bold;font-stretch:normal;font-size:52.91666794px;font-family:Ubuntu;-inkscape-font-specification:'Ubuntu Bold';stroke-width:0.58762288;stroke-miterlimit:4;stroke-dasharray:none;fill:#4d4d4d;">Aquaponik</tspan></text>
    <text
       xml:space="preserve"
       style="font-style:normal;font-weight:normal;font-size:52.91666794px;line-height:1.25;font-family:sans-serif;letter-spacing:0px;word-spacing:0px;fill:#4d4d4d;fill-opacity:1;stroke:none;stroke-width:0.58762294;stroke-miterlimit:4;stroke-dasharray:none;"
       x="566.995"
       y="256.8418"
       id="text1442-7-7-2-7"><tspan
         sodipodi:role="line"
         id="tspan1440-8-7-3-2"
         x="566.995"
         y="256.8418"
         style="font-style:normal;font-variant:normal;font-weight:bold;font-stretch:normal;font-size:52.91666794px;font-family:Ubuntu;-inkscape-font-specification:'Ubuntu Bold';stroke-width:0.58762294;stroke-miterlimit:4;stroke-dasharray:none;fill:#4d4d4d;">Bewsserung</tspan></text>
    <text
       xml:space="preserve"
       style="font-style:normal;font-weight:normal;font-size:52.91666794px;line-height:1.25;font-family:sans-serif;letter-spacing:0px;word-spacing:0px;fill:#4d4d4d;fill-opacity:1;stroke:none;stroke-width:0.58762294;stroke-miterlimit:4;stroke-dasharray:none;"
       x="859.13177"
       y="397.10358"
       id="text1442-7-7-2-7-5"><tspan
         sodipodi:role="line"
         id="tspan1440-8-7-3-2-3"
         x="859.13177"
         y="397.10358"
         style="font-style:normal;font-variant:normal;font-weight:bold;font-stretch:normal;font-size:52.91666794px;font-family:Ubuntu;-inkscape-font-specification:'Ubuntu Bold';stroke-width:0.58762294;stroke-miterlimit:4;stroke-dasharray:none;fill:#4d4d4d;">Teich</tspan></text>
    <text
       xml:space="preserve"
       style="font-style:normal;font-weight:normal;font-size:52.91666794px;line-height:1.25;font-family:sans-serif;letter-spacing:0px;word-spacing:0px;fill:#4d4d4d;fill-opacity:1;stroke:none;stroke-width:0.58762294;stroke-miterlimit:4;stroke-dasharray:none;"
       x="1124.6127"
       y="515.98383"
       id="text1442-7-7-2-7-5-7"><tspan
         sodipodi:role="line"
         id="tspan1440-8-7-3-2-3-6"
         x="1124.6127"
         y="515.98383"
         style="font-style:normal;font-variant:normal;font-weight:bold;font-stretch:normal;font-size:52.91666794px;font-family:Ubuntu;-inkscape-font-specification:'Ubuntu Bold';stroke-width:0.58762294;stroke-miterlimit:4;stroke-dasharray:none;fill:#4d4d4d;">Filter</tspan></text>
    <text
       xml:space="preserve"
       style="font-style:normal;font-weight:normal;font-size:52.91666794px;line-height:1.25;font-family:sans-serif;letter-spacing:0px;word-spacing:0px;fill:#4d4d4d;fill-opacity:1;stroke:none;stroke-width:0.58762294;stroke-miterlimit:4;stroke-dasharray:none;"
       x="1440.0756"
       y="696.87054"
       id="text1442-7-7-2-7-5-7-8"><tspan
         sodipodi:role="line"
         id="tspan1440-8-7-3-2-3-6-1"
         x="1440.0756"
         y="696.87054"
         style="font-style:normal;font-variant:normal;font-weight:bold;font-stretch:normal;font-size:52.91666794px;font-family:Ubuntu;-inkscape-font-specification:'Ubuntu Bold';stroke-width:0.58762294;stroke-miterlimit:4;stroke-dasharray:none;fill:#4d4d4d;">Ausgleichen+</tspan><tspan
         sodipodi:role="line"
         x="1440.0756"
         y="765.54193"
         style="font-style:normal;font-variant:normal;font-weight:bold;font-stretch:normal;font-size:52.91666794px;font-family:Ubuntu;-inkscape-font-specification:'Ubuntu Bold';stroke-width:0.58762294;stroke-miterlimit:4;stroke-dasharray:none;fill:#4d4d4d;"
         id="tspan1671">Pumpen</tspan></text>
    <flowRoot
       xml:space="preserve"
       id="flowRoot1662"
       style="font-style:normal;font-weight:normal;font-size:40px;line-height:1.25;font-family:sans-serif;letter-spacing:0px;word-spacing:0px;fill:#4d4d4d;fill-opacity:1;stroke:none;"
       transform="scale(0.26458333)"><flowRegion
         id="flowRegion1664"
         style="fill:#4d4d4d;"><rect
           id="rect1666"
           width="7777.1431"
           height="2422.8572"
           x="-1142.8572"
           y="-2391.7661"
           style="fill:#4d4d4d;" /></flowRegion><flowPara
         id="flowPara1668"></flowPara></flowRoot>    <path
       style="fill:none;stroke:#4d4d4d;stroke-width:13;stroke-linecap:round;stroke-linejoin:round;stroke-miterlimit:4;stroke-dasharray:none;stroke-opacity:1;marker-end:url(#marker3441)"
       d="M 51.40476,210.82143 V 446.30059 H 453.57142"
       id="path1673"
       inkscape:connector-curvature="0"
       sodipodi:nodetypes="ccc" />
    <path
       style="fill:none;stroke:#4d4d4d;stroke-width:13;stroke-linecap:round;stroke-linejoin:round;stroke-miterlimit:4;stroke-dasharray:none;stroke-opacity:1;marker-end:url(#Arrow2Send)"
       d="M -52.916666,210.82143 V 628.86308 H 1026.5833"
       id="path1675"
       inkscape:connector-curvature="0"
       sodipodi:nodetypes="ccc" />
    <path
       style="fill:none;stroke:#4d4d4d;stroke-width:13;stroke-linecap:round;stroke-linejoin:round;stroke-miterlimit:4;stroke-dasharray:none;stroke-opacity:1;marker-end:url(#marker3451)"
       d="M 1301.75,771.36011 H -204.10714 V -238.21428 h 142.119047"
       id="path1677"
       inkscape:connector-curvature="0"
       sodipodi:nodetypes="cccc" />
    <path
       style="fill:none;stroke:#4d4d4d;stroke-width:13;stroke-linecap:round;stroke-linejoin:round;stroke-miterlimit:4;stroke-dasharray:none;stroke-opacity:1;marker-end:url(#marker3441-3)"
       d="M 234.84249,-34.178382 V 18.631782"
       id="path1673-4"
       inkscape:connector-curvature="0"
       sodipodi:nodetypes="cc" />
    <path
       style="fill:none;stroke:#4d4d4d;stroke-width:13;stroke-linecap:round;stroke-linejoin:round;stroke-miterlimit:4;stroke-dasharray:none;stroke-opacity:1;marker-end:url(#marker3441-3-0)"
       d="m 322.14857,97.427801 h 37.04167 v 50.459819"
       id="path1673-4-5"
       inkscape:connector-curvature="0"
       sodipodi:nodetypes="ccc" />
    <path
       style="fill:none;stroke:#4d4d4d;stroke-width:13;stroke-linecap:round;stroke-linejoin:round;stroke-miterlimit:4;stroke-dasharray:none;stroke-opacity:1;marker-end:url(#marker3441-3-0-8)"
       d="m 486.19023,227.4055 h 52.91667 v 92.79314"
       id="path1673-4-5-0"
       inkscape:connector-curvature="0"
       sodipodi:nodetypes="ccc" />
    <path
       style="fill:none;stroke:#4d4d4d;stroke-width:13;stroke-linecap:round;stroke-linejoin:round;stroke-miterlimit:4;stroke-dasharray:none;stroke-opacity:1;marker-end:url(#marker3441-3-0-8-9)"
       d="m 748.50572,388.08623 h 26.45834 v 50.45981"
       id="path1673-4-5-0-8"
       inkscape:connector-curvature="0"
       sodipodi:nodetypes="ccc" />
    <path
       style="fill:none;stroke:#4d4d4d;stroke-width:13;stroke-linecap:round;stroke-linejoin:round;stroke-miterlimit:4;stroke-dasharray:none;stroke-opacity:1;marker-end:url(#marker3441-3-0-8-9-9)"
       d="m 1066.3837,478.80052 h 26.4584 v 50.45981"
       id="path1673-4-5-0-8-1"
       inkscape:connector-curvature="0"
       sodipodi:nodetypes="ccc" />
    <path
       style="fill:none;stroke:#4d4d4d;stroke-width:13;stroke-linecap:round;stroke-linejoin:round;stroke-miterlimit:4;stroke-dasharray:none;stroke-opacity:1;marker-end:url(#marker3441-3-0-8-9-2)"
       d="m 1299.217,581.61004 h 26.4584 v 50.45981"
       id="path1673-4-5-0-8-6"
       inkscape:connector-curvature="0"
       sodipodi:nodetypes="ccc" />
    <text
       xml:space="preserve"
       style="font-style:normal;font-weight:normal;font-size:52.91666794px;line-height:1.25;font-family:sans-serif;letter-spacing:0px;word-spacing:0px;fill:#4d4d4d;fill-opacity:1;stroke:none;stroke-width:0.58762282;stroke-miterlimit:4;stroke-dasharray:none;"
       x="76.586403"
       y="428.23792"
       id="text1442-7-3"><tspan
         sodipodi:role="line"
         id="tspan1440-8-9"
         x="76.586403"
         y="428.23792"
         style="font-style:normal;font-variant:normal;font-weight:bold;font-stretch:normal;font-size:52.91666794px;font-family:Ubuntu;-inkscape-font-specification:'Ubuntu Bold';stroke-width:0.58762282;stroke-miterlimit:4;stroke-dasharray:none;fill:#4d4d4d;">Grauwasser</tspan></text>
    <text
       xml:space="preserve"
       style="font-style:normal;font-weight:normal;font-size:52.91666794px;line-height:1.25;font-family:sans-serif;letter-spacing:0px;word-spacing:0px;fill:#4d4d4d;fill-opacity:1;stroke:none;stroke-width:0.58762282;stroke-miterlimit:4;stroke-dasharray:none;"
       x="697.82837"
       y="613.19928"
       id="text1442-7-0"><tspan
         sodipodi:role="line"
         id="tspan1440-8-8"
         x="697.82837"
         y="613.19928"
         style="font-style:normal;font-variant:normal;font-weight:bold;font-stretch:normal;font-size:52.91666794px;font-family:Ubuntu;-inkscape-font-specification:'Ubuntu Bold';stroke-width:0.58762282;stroke-miterlimit:4;stroke-dasharray:none;fill:#4d4d4d;">Abwasser</tspan></text>
  </g>
</svg>
